PathFileType	4	(X/Y/Z)	\\Move.snu.ac.kr\motion\Animal\091204_091205_Bird\091205_bird\Project 2\Capture day 2\Session 1\pigeon_013.trc
DataRate	CameraRate	NumFrames	NumMarkers	Units	OrigDataRate	OrigDataStartFrame	OrigNumFrames
240.0	240.0	19	14	mm	240.0	192	3189
Frame#	Time	14MarkersBird:Head			14MarkersBird:C_back			14MarkersBird:Spine			14MarkersBird:L-shoulder			14MarkersBird:L-elbow			14MarkersBird:L-wrist			14MarkersBird:L-hand			14MarkersBird:R-shoulder			14MarkersBird:R-elbow			14MarkersBird:R-Wrist			14MarkersBird:R-hand			14MarkersBird:C_Tail			14MarkersBird:L-Tale			14MarkersBird:R-Tale			
		X1	Y1	Z1	X2	Y2	Z2	X3	Y3	Z3	X4	Y4	Z4	X5	Y5	Z5	X6	Y6	Z6	X7	Y7	Z7	X8	Y8	Z8	X9	Y9	Z9	X10	Y10	Z10	X11	Y11	Z11	X12	Y12	Z12	X13	Y13	Z13	X14	Y14	Z14	

1760	7.329	-63.52339	1282.99963	-338.43518	-70.22285	1288.17346	-275.81860	-73.60650	1257.12012	-232.43272	-87.79978	1282.73755	-308.24545	-118.06533	1280.39514	-294.16388	-133.13127	1261.31677	-329.37769	-153.07112	1249.84509	-343.78076	-44.00852	1273.49194	-306.58917	-21.65737	1266.66504	-292.54565	-10.85126	1239.00183	-321.90982	13.29487	1212.74207	-336.82178	-102.93678	1208.87561	-124.88669	-171.54985	1255.58081	-195.99075	10.20992	1219.17798	-171.64606	
1761	7.333	-63.84265	1278.80432	-354.61356	-70.15968	1284.79016	-291.86548	-74.00291	1251.97974	-248.37366	-87.78021	1279.08411	-324.58228	-118.00768	1274.45020	-310.75693	-126.83266	1254.22241	-347.45453	-141.79968	1237.95032	-363.08447	-44.23769	1269.96741	-322.76559	-22.76391	1260.48022	-308.97324	-18.06554	1233.65039	-340.42038	-0.64523	1203.83704	-358.08365	-102.27676	1203.17505	-141.90034	-171.17801	1248.59973	-211.03757	9.90016	1215.42090	-187.24736	
1762	7.338	-64.06876	1274.39050	-370.95758	-70.05329	1281.24133	-308.15689	-74.36050	1247.02063	-264.30542	-87.66241	1275.43054	-340.99374	-117.73603	1269.56104	-326.43219	-121.25707	1250.49231	-364.61362	-130.87621	1230.86682	-380.76053	-44.41228	1266.40210	-339.11694	-23.43103	1255.75830	-324.54202	-23.37609	1231.63562	-358.17847	-12.42734	1199.52417	-377.63385	-101.62453	1197.84900	-158.83540	-170.74350	1241.39258	-226.37082	9.46846	1210.72888	-203.38113	
1763	7.342	-64.20159	1269.78723	-387.49576	-69.92957	1277.30200	-324.76477	-74.67979	1242.23132	-280.23270	-87.48664	1271.60229	-357.52222	-117.38609	1265.87952	-341.20587	-117.24841	1249.87805	-380.94888	-122.17992	1228.28430	-397.09412	-44.53637	1262.65698	-355.65005	-23.49270	1252.47937	-339.39807	-26.07688	1232.41992	-375.16245	-20.41722	1198.89014	-395.43335	-100.92854	1192.93127	-175.65901	-170.25551	1234.17456	-241.97772	8.72321	1204.88342	-220.06717	
1764	7.346	-64.26304	1265.04358	-404.25702	-69.78094	1272.85327	-341.71780	-74.96133	1237.60046	-296.16022	-87.28330	1267.47546	-374.21295	-116.83688	1263.55200	-355.22668	-115.20886	1251.65906	-396.48804	-117.13103	1229.01672	-412.26187	-44.64120	1258.62366	-372.33615	-23.13577	1250.60840	-353.59982	-26.07680	1235.10767	-391.23807	-23.84777	1200.56616	-411.37582	-100.13375	1188.38855	-192.35770	-169.72061	1227.23315	-257.72559	7.56708	1198.14697	-237.14268	
1765	7.350	-64.25365	1260.16602	-421.22195	-69.55915	1267.92761	-359.00165	-75.20568	1233.11682	-312.09280	-87.06471	1262.99658	-391.06952	-115.71959	1262.50012	-368.73254	-114.96941	1254.93604	-411.23355	-116.26258	1231.57678	-426.17151	-44.77185	1254.27417	-389.12277	-22.88686	1250.03845	-367.18198	-23.85165	1238.81458	-406.28308	-22.89702	1203.26294	-425.23706	-99.31049	1183.99072	-209.03816	-169.20445	1220.94714	-273.48523	6.09924	1191.14893	-254.34021	
1766	7.354	-64.15120	1255.13708	-438.30121	-69.22497	1262.63879	-376.55444	-75.41338	1228.76880	-328.03519	-86.82249	1258.17236	-408.05521	-113.57202	1262.28333	-382.04330	-115.82243	1258.93689	-425.18674	-119.08672	1234.90625	-438.38953	-44.96220	1249.69250	-405.94916	-23.45360	1250.46936	-380.36142	-20.27687	1242.91565	-420.24881	-18.39725	1206.24866	-436.72903	-98.65070	1179.39539	-225.89101	-168.85777	1215.76648	-289.27234	4.63099	1184.60132	-271.44144	
1767	7.358	-63.94013	1249.97009	-455.38626	-68.79373	1257.10449	-394.26038	-75.58498	1224.54504	-343.99203	-86.53212	1253.05859	-425.13544	-110.09150	1262.19397	-395.52200	-116.74596	1263.09021	-438.36856	-124.20223	1238.74231	-448.34357	-45.24050	1245.06335	-422.77411	-25.40859	1251.35681	-393.63416	-16.43538	1247.05823	-433.21872	-11.50569	1209.55090	-445.63733	-98.39194	1174.40808	-243.03725	-168.86325	1212.01733	-305.33035	3.58793	1179.05566	-288.37491	
1768	7.363	-63.63316	1244.72278	-472.41702	-68.32609	1251.44312	-411.97519	-75.72102	1220.43445	-359.96814	-86.16749	1247.77930	-442.30890	-105.32727	1261.53076	-409.46756	-116.77616	1266.89746	-450.94238	-129.59885	1243.35168	-455.82199	-45.64289	1240.56482	-439.59033	-28.91520	1252.01465	-407.61298	-13.38489	1250.99304	-445.51913	-3.57555	1213.83105	-452.02194	-98.74181	1169.14795	-260.41437	-169.33348	1209.69067	-322.05911	3.35946	1174.82007	-305.20526	
1769	7.367	-63.25649	1239.47644	-489.40091	-67.89978	1245.79944	-429.57910	-75.82206	1216.42578	-375.96823	-85.73400	1242.51099	-459.57605	-99.70782	1259.83362	-424.04968	-115.37726	1269.83167	-463.33649	-133.25391	1248.99817	-461.48581	-46.19269	1236.21875	-456.40103	-33.69453	1251.83044	-422.71198	-11.82046	1254.39990	-457.70566	3.89238	1219.98486	-456.40866	-99.80629	1163.95740	-277.77728	-170.23244	1208.47070	-339.79434	4.15253	1171.96082	-322.08057	
1770	7.371	-62.82201	1234.29944	-506.35852	-67.58963	1240.29382	-447.00964	-75.88863	1212.50708	-391.99704	-85.27567	1237.36499	-476.86441	-93.93822	1256.93140	-439.34357	-112.69341	1271.46033	-476.10040	-133.91833	1255.63306	-466.88370	-46.83456	1231.85913	-473.20410	-39.16711	1250.45020	-438.97617	-11.74649	1256.88086	-470.32153	9.41417	1228.60022	-459.89685	-101.56926	1159.19922	-294.82520	-171.36163	1207.93335	-358.59064	5.88358	1170.29602	-339.14297	
1771	7.375	-62.33086	1229.21387	-523.29138	-67.42900	1234.92603	-464.24054	-75.92130	1208.66748	-408.05930	-84.85175	1232.28943	-494.02573	-88.82153	1252.93945	-455.40436	-109.57381	1271.67615	-489.59644	-131.58765	1262.91174	-473.77371	-47.39680	1227.25208	-489.99664	-44.54718	1247.81177	-456.22104	-12.45147	1258.12622	-483.63245	11.96389	1239.44983	-464.10971	-103.88868	1155.09143	-311.36508	-172.42477	1207.65601	-378.14996	8.18292	1169.41357	-356.42279	
1772	7.379	-61.80022	1224.20850	-540.19733	-67.40173	1229.53430	-481.21710	-75.92059	1204.89526	-424.15982	-84.50558	1227.15295	-510.95160	-85.03568	1248.23804	-472.31876	-107.25608	1270.73132	-503.85010	-127.28673	1270.23389	-483.32953	-47.64976	1222.21960	-506.76620	-48.83620	1244.10901	-474.28201	-12.86170	1257.99927	-497.56155	11.64183	1251.30090	-470.78839	-106.49757	1151.63672	-327.38077	-173.17685	1207.14685	-397.95667	10.53477	1168.72644	-373.77347	
1773	7.383	-61.26604	1219.26953	-557.07037	-67.46046	1223.93994	-497.88086	-75.88705	1201.17969	-440.30319	-84.25556	1221.89172	-527.65820	-82.98394	1243.31909	-490.12790	-106.82384	1268.92932	-518.62842	-122.60616	1276.68933	-495.90149	-47.41303	1216.68042	-523.46014	-51.02886	1239.74023	-493.03735	-12.04243	1256.40649	-511.84329	10.00924	1262.15259	-481.11844	-108.99342	1148.69043	-342.95105	-173.56873	1205.77002	-417.52182	12.46750	1167.48157	-390.95563	
1774	7.387	-60.76611	1214.40186	-573.88232	-67.54845	1218.13733	-514.25140	-75.82126	1197.50867	-456.49426	-84.11791	1216.52222	-544.21405	-82.76682	1238.50256	-508.64261	-108.77605	1266.22778	-533.65643	-119.46783	1281.12622	-511.23810	-46.63855	1210.66931	-539.98932	-50.58775	1235.05322	-512.12598	-9.59145	1253.12708	-526.25446	9.50356	1269.72046	-495.22928	-110.90498	1146.03967	-358.17093	-173.75008	1202.91870	-436.54193	13.69128	1164.82263	-407.81485	
1775	7.392	-60.31608	1209.62708	-590.59204	-67.62112	1212.29199	-530.43793	-75.72372	1193.87122	-472.73779	-84.10420	1211.08972	-560.64087	-84.24159	1233.71936	-527.36145	-112.89822	1262.16846	-548.83795	-119.73743	1282.46973	-528.75189	-45.45241	1204.38562	-556.31781	-47.75412	1230.03357	-530.81531	-5.71376	1247.81421	-540.77667	12.12504	1272.02795	-512.24005	-111.89806	1143.43762	-373.17487	-173.91434	1198.35889	-454.93527	14.13899	1160.08435	-424.37155	
1776	7.396	-59.90429	1204.95105	-607.17358	-67.66848	1206.57703	-546.54510	-75.59501	1190.25586	-489.03842	-84.18606	1205.65967	-576.93201	-87.06345	1228.61267	-545.69598	-118.46956	1256.21167	-564.39240	-124.38445	1280.02039	-547.79047	-44.13287	1198.14514	-572.52826	-43.40379	1224.35718	-548.37939	-0.95268	1240.19360	-555.62091	18.37807	1268.02966	-530.91772	-112.01849	1140.60730	-388.18735	-174.16342	1192.33337	-472.80859	13.92012	1153.16565	-440.75769	
1777	7.400	-59.50766	1200.36865	-623.64368	-67.71233	1201.05371	-562.61603	-75.43567	1186.65161	-505.40094	-84.30148	1200.29724	-593.11493	-90.79747	1222.87769	-563.40070	-124.65668	1248.12427	-580.79175	-132.83374	1273.51770	-567.97656	-42.97703	1192.18555	-588.77679	-38.62052	1217.76794	-564.65778	4.11910	1230.29724	-571.16925	27.24198	1257.90723	-550.49506	-111.70335	1137.18909	-403.50885	-174.50662	1185.29675	-490.34109	13.24477	1144.64282	-457.11731	
1778	7.404	-59.10893	1195.87793	-640.04956	-67.79399	1195.68469	-578.65735	-75.24624	1183.04651	-521.83008	-84.39189	1195.02917	-609.26141	-95.07179	1216.44885	-580.79419	-130.76868	1238.05969	-598.51996	-143.24524	1263.13538	-589.36230	-42.12084	1186.51929	-605.18549	-34.18482	1210.27185	-580.16486	8.98173	1218.47546	-587.86719	36.93378	1242.82043	-571.00067	-111.49301	1132.73352	-419.44424	-174.89919	1177.63696	-507.63876	12.36036	1135.50745	-473.52661	
